# xmcd
# Track frame offsets:
# 183
# 11033
# 24283
# 33323
# 45425
# 54568
# 66068
# 79283
# 92833
# 104118
# 115858
# 127850
#
# Disc length: 1869 seconds
# Revision: 0
# Processed by: cddbd v1.5.1PL0 Copyright (c) Steve Scherf et al.
# Submitted via: VisiTrax 2.9.10.220 - For more info visit www.synapsa.com
#
DISCID=95074b0c
DTITLE=Glen Campbell - Country
DYEAR=1971
DGENRE=
TTITLE0=Try a Little Kindness
TTITLE1=Honey Come Back
TTITLE2=People Get Ready
TTITLE3=By the Time I Get to Phoenix
TTITLE4=It's Over
TTITLE5=You're My World
TTITLE6=Where's the Playground, Susie?
TTITLE7=Mary in the Morning
TTITLE8=True Grit
TTITLE9=Norwood (Me and My Guitar)
TTITLE10=Galveston
TTITLE11=Folk Singer
EXTD=EMI/Capitol - CDAX 701289\nBarcode: 5 099970 128925
EXTT0=
EXTT1=
EXTT2=
EXTT3=
EXTT4=
EXTT5=
EXTT6=
EXTT7=
EXTT8=
EXTT9=
EXTT10=
EXTT11=
PLAYORDER=
